<svg width="25" height="28" viewBox="0 0 25 28" fill="none" xmlns="http://www.w3.org/2000/svg">
<g filter="url(#filter0_d_6_20)">
<path d="M17.3571 5C17.3571 2.24301 15.1782 0 12.5 0C9.82174 0 7.64286 2.24301 7.64286 5H4V16.875C4 18.6009 5.35913 20 7.03571 20H17.9643C19.6409 20 21 18.6009 21 16.875V5H17.3571ZM12.5 1.25C14.5087 1.25 16.1429 2.93223 16.1429 5H8.85714C8.85714 2.93223 10.4913 1.25 12.5 1.25ZM19.7857 16.875C19.7857 17.9089 18.9686 18.75 17.9643 18.75H7.03571C6.03139 18.75 5.21429 17.9089 5.21429 16.875V6.25H7.64286V8.125C7.64286 8.4702 7.91471 8.75 8.25 8.75C8.58529 8.75 8.85714 8.4702 8.85714 8.125V6.25H16.1429V8.125C16.1429 8.4702 16.4147 8.75 16.75 8.75C17.0853 8.75 17.3571 8.4702 17.3571 8.125V6.25H19.7857V16.875Z" fill="white"/>
</g>
<defs>
<filter id="filter0_d_6_20" x="0" y="0" width="25" height="28" filterUnits="userSpaceOnUse" color-interpolation-filters="sRGB">
<feFlood flood-opacity="0" result="BackgroundImageFix"/>
<feColorMatrix in="SourceAlpha" type="matrix" values="0 0 0 0 0 0 0 0 0 0 0 0 0 0 0 0 0 0 127 0" result="hardAlpha"/>
<feOffset dy="4"/>
<feGaussianBlur stdDeviation="2"/>
<feComposite in2="hardAlpha" operator="out"/>
<feColorMatrix type="matrix" values="0 0 0 0 0 0 0 0 0 0 0 0 0 0 0 0 0 0 0.25 0"/>
<feBlend mode="normal" in2="BackgroundImageFix" result="effect1_dropShadow_6_20"/>
<feBlend mode="normal" in="SourceGraphic" in2="effect1_dropShadow_6_20" result="shape"/>
</filter>
</defs>
</svg>
